<?xml version="1.0" encoding="UTF-8" standalone="no"?>
<!DOCTYPE svg PUBLIC "-//W3C//DTD SVG 1.1//EN"
 "http://www.w3.org/Graphics/SVG/1.1/DTD/svg11.dtd">
<!-- Generated by graphviz version 2.42.4 (0)
 -->
<!-- Title: PizzaIaC Pages: 1 -->
<svg width="980pt" height="263pt"
 viewBox="0.00 0.00 979.79 262.64" xmlns="http://www.w3.org/2000/svg" xmlns:xlink="http://www.w3.org/1999/xlink">
<g id="graph0" class="graph" transform="scale(1 1) rotate(0) translate(4 258.64)">
<title>PizzaIaC</title>
<polygon fill="white" stroke="transparent" points="-4,4 -4,-258.64 975.79,-258.64 975.79,4 -4,4"/>
<g id="clust1" class="cluster">
<title>cluster_pizza_net</title>
<polygon fill="none" stroke="black" stroke-dasharray="5,2" points="309.29,-30.14 309.29,-163.14 963.79,-163.14 963.79,-30.14 309.29,-30.14"/>
<text text-anchor="middle" x="636.54" y="-147.94" font-family="Helvetica,sans-Serif" font-size="14.00">docker network: pizza_net</text>
</g>
<!-- Users -->
<g id="node1" class="node">
<title>Users</title>
<ellipse fill="none" stroke="black" cx="81.89" cy="-175.14" rx="81.79" ry="18"/>
<text text-anchor="middle" x="81.89" y="-171.44" font-family="Helvetica,sans-Serif" font-size="14.00">Users / Browser</text>
</g>
<!-- PiHole -->
<g id="node2" class="node">
<title>PiHole</title>
<path fill="none" stroke="black" d="M499.79,-254.64C499.79,-254.64 298.79,-254.64 298.79,-254.64 292.79,-254.64 286.79,-248.64 286.79,-242.64 286.79,-242.64 286.79,-183.64 286.79,-183.64 286.79,-177.64 292.79,-171.64 298.79,-171.64 298.79,-171.64 499.79,-171.64 499.79,-171.64 505.79,-171.64 511.79,-177.64 511.79,-183.64 511.79,-183.64 511.79,-242.64 511.79,-242.64 511.79,-248.64 505.79,-254.64 499.79,-254.64"/>
<text text-anchor="middle" x="399.29" y="-239.44" font-family="Helvetica,sans-Serif" font-size="14.00">Pi&#45;hole Local DNS</text>
<text text-anchor="middle" x="399.29" y="-224.44" font-family="Helvetica,sans-Serif" font-size="14.00">A&#45;records:</text>
<text text-anchor="middle" x="399.29" y="-209.44" font-family="Helvetica,sans-Serif" font-size="14.00">&#45; oven.pizza → 192.168.2.71</text>
<text text-anchor="middle" x="399.29" y="-194.44" font-family="Helvetica,sans-Serif" font-size="14.00">&#45; api.pizza → 192.168.2.71</text>
<text text-anchor="middle" x="399.29" y="-179.44" font-family="Helvetica,sans-Serif" font-size="14.00">&#45; status.pizza → 192.168.2.71</text>
</g>
<!-- Users&#45;&gt;PiHole -->
<g id="edge1" class="edge">
<title>Users&#45;&gt;PiHole</title>
<path fill="none" stroke="black" d="M147.18,-186.11C158.69,-187.91 170.58,-189.67 181.79,-191.14 212.46,-195.18 245.66,-198.89 276.64,-202.06"/>
<polygon fill="black" stroke="black" points="276.31,-205.54 286.61,-203.07 277.01,-198.58 276.31,-205.54"/>
<text text-anchor="middle" x="225.29" y="-203.94" font-family="Helvetica,sans-Serif" font-size="14.00">DNS queries</text>
</g>
<!-- Caddy -->
<g id="node4" class="node">
<title>Caddy</title>
<path fill="none" stroke="black" d="M469.29,-129.64C469.29,-129.64 329.29,-129.64 329.29,-129.64 323.29,-129.64 317.29,-123.64 317.29,-117.64 317.29,-117.64 317.29,-88.64 317.29,-88.64 317.29,-82.64 323.29,-76.64 329.29,-76.64 329.29,-76.64 469.29,-76.64 469.29,-76.64 475.29,-76.64 481.29,-82.64 481.29,-88.64 481.29,-88.64 481.29,-117.64 481.29,-117.64 481.29,-123.64 475.29,-129.64 469.29,-129.64"/>
<text text-anchor="middle" x="399.29" y="-114.44" font-family="Helvetica,sans-Serif" font-size="14.00">Caddy Reverse Proxy</text>
<text text-anchor="middle" x="399.29" y="-99.44" font-family="Helvetica,sans-Serif" font-size="14.00">(oven.pizza)</text>
<text text-anchor="middle" x="399.29" y="-84.44" font-family="Helvetica,sans-Serif" font-size="14.00">Ports: 80/443</text>
</g>
<!-- Users&#45;&gt;Caddy -->
<g id="edge3" class="edge">
<title>Users&#45;&gt;Caddy</title>
<path fill="none" stroke="black" d="M135.42,-161.51C150.37,-157.73 166.7,-153.69 181.79,-150.14 222.77,-140.52 268.3,-130.53 306.98,-122.25"/>
<polygon fill="black" stroke="black" points="308.13,-125.58 317.18,-120.07 306.67,-118.74 308.13,-125.58"/>
<text text-anchor="middle" x="225.29" y="-153.94" font-family="Helvetica,sans-Serif" font-size="14.00">HTTP/HTTPS</text>
</g>
<!-- PiHole&#45;&gt;Users -->
<g id="edge2" class="edge">
<title>PiHole&#45;&gt;Users</title>
<path fill="none" stroke="black" d="M286.48,-175.44C280.54,-174.16 274.61,-173.04 268.79,-172.14 230.57,-166.24 220.45,-171.56 181.79,-172.14 178.93,-172.19 176.02,-172.24 173.09,-172.29"/>
<polygon fill="black" stroke="black" points="172.96,-168.8 163.04,-172.51 173.11,-175.79 172.96,-168.8"/>
<text text-anchor="middle" x="225.29" y="-175.94" font-family="Helvetica,sans-Serif" font-size="14.00">A records</text>
</g>
<!-- Host -->
<g id="node3" class="node">
<title>Host</title>
<path fill="none" stroke="black" d="M125.39,-46.14C125.39,-46.14 38.39,-46.14 38.39,-46.14 32.39,-46.14 26.39,-40.14 26.39,-34.14 26.39,-34.14 26.39,-20.14 26.39,-20.14 26.39,-14.14 32.39,-8.14 38.39,-8.14 38.39,-8.14 125.39,-8.14 125.39,-8.14 131.39,-8.14 137.39,-14.14 137.39,-20.14 137.39,-20.14 137.39,-34.14 137.39,-34.14 137.39,-40.14 131.39,-46.14 125.39,-46.14"/>
<text text-anchor="middle" x="81.89" y="-30.94" font-family="Helvetica,sans-Serif" font-size="14.00">Debian Host</text>
<text text-anchor="middle" x="81.89" y="-15.94" font-family="Helvetica,sans-Serif" font-size="14.00">192.168.2.71</text>
</g>
<!-- Host&#45;&gt;Caddy -->
<g id="edge7" class="edge">
<title>Host&#45;&gt;Caddy</title>
<path fill="none" stroke="black" stroke-dasharray="1,5" d="M135.9,-46.2C150.64,-51.12 166.74,-56.16 181.79,-60.14 222.5,-70.94 268.17,-80.39 307.03,-87.66"/>
<polygon fill="black" stroke="black" points="306.81,-91.18 317.28,-89.56 308.08,-84.3 306.81,-91.18"/>
<text text-anchor="middle" x="225.29" y="-82.94" font-family="Helvetica,sans-Serif" font-size="14.00">Docker</text>
</g>
<!-- API -->
<g id="node5" class="node">
<title>API</title>
<path fill="none" stroke="black" d="M733.79,-132.14C733.79,-132.14 668.79,-132.14 668.79,-132.14 662.79,-132.14 656.79,-126.14 656.79,-120.14 656.79,-120.14 656.79,-106.14 656.79,-106.14 656.79,-100.14 662.79,-94.14 668.79,-94.14 668.79,-94.14 733.79,-94.14 733.79,-94.14 739.79,-94.14 745.79,-100.14 745.79,-106.14 745.79,-106.14 745.79,-120.14 745.79,-120.14 745.79,-126.14 739.79,-132.14 733.79,-132.14"/>
<text text-anchor="middle" x="701.29" y="-116.94" font-family="Helvetica,sans-Serif" font-size="14.00">pizza&#45;api</text>
<text text-anchor="middle" x="701.29" y="-101.94" font-family="Helvetica,sans-Serif" font-size="14.00">(api.pizza)</text>
</g>
<!-- Host&#45;&gt;API -->
<g id="edge8" class="edge">
<title>Host&#45;&gt;API</title>
<path fill="none" stroke="black" stroke-dasharray="1,5" d="M137.53,-29.85C271.31,-36.62 606,-54.52 627.79,-65.14 638.53,-70.39 636.31,-77.85 645.79,-85.14 647.33,-86.34 648.94,-87.5 650.59,-88.64"/>
<polygon fill="black" stroke="black" points="648.8,-91.65 659.11,-94.07 652.56,-85.74 648.8,-91.65"/>
</g>
<!-- Kuma -->
<g id="node6" class="node">
<title>Kuma</title>
<path fill="none" stroke="black" d="M744.79,-76.14C744.79,-76.14 657.79,-76.14 657.79,-76.14 651.79,-76.14 645.79,-70.14 645.79,-64.14 645.79,-64.14 645.79,-50.14 645.79,-50.14 645.79,-44.14 651.79,-38.14 657.79,-38.14 657.79,-38.14 744.79,-38.14 744.79,-38.14 750.79,-38.14 756.79,-44.14 756.79,-50.14 756.79,-50.14 756.79,-64.14 756.79,-64.14 756.79,-70.14 750.79,-76.14 744.79,-76.14"/>
<text text-anchor="middle" x="701.29" y="-60.94" font-family="Helvetica,sans-Serif" font-size="14.00">Uptime&#45;Kuma</text>
<text text-anchor="middle" x="701.29" y="-45.94" font-family="Helvetica,sans-Serif" font-size="14.00">(status.pizza)</text>
</g>
<!-- Host&#45;&gt;Kuma -->
<g id="edge9" class="edge">
<title>Host&#45;&gt;Kuma</title>
<path fill="none" stroke="black" stroke-dasharray="1,5" d="M137.55,-21.88C236.3,-13.65 450.65,-1.63 627.79,-32.14 632.54,-32.96 637.4,-34.05 642.24,-35.31"/>
<polygon fill="black" stroke="black" points="641.53,-38.75 652.1,-38.13 643.45,-32.02 641.53,-38.75"/>
</g>
<!-- DB -->
<g id="node7" class="node">
<title>DB</title>
<path fill="none" stroke="black" d="M943.79,-111.64C943.79,-111.64 871.79,-111.64 871.79,-111.64 865.79,-111.64 859.79,-105.64 859.79,-99.64 859.79,-99.64 859.79,-70.64 859.79,-70.64 859.79,-64.64 865.79,-58.64 871.79,-58.64 871.79,-58.64 943.79,-58.64 943.79,-58.64 949.79,-58.64 955.79,-64.64 955.79,-70.64 955.79,-70.64 955.79,-99.64 955.79,-99.64 955.79,-105.64 949.79,-111.64 943.79,-111.64"/>
<text text-anchor="middle" x="907.79" y="-96.44" font-family="Helvetica,sans-Serif" font-size="14.00">PostgreSQL</text>
<text text-anchor="middle" x="907.79" y="-81.44" font-family="Helvetica,sans-Serif" font-size="14.00">(toppings)</text>
<text text-anchor="middle" x="907.79" y="-66.44" font-family="Helvetica,sans-Serif" font-size="14.00">Port: 5432</text>
</g>
<!-- Host&#45;&gt;DB -->
<g id="edge10" class="edge">
<title>Host&#45;&gt;DB</title>
<path fill="none" stroke="black" stroke-dasharray="1,5" d="M137.62,-16.22C151.94,-13.78 167.39,-11.51 181.79,-10.14 228.25,-5.73 240.11,-8.59 286.79,-8.14 495.87,-6.15 553.14,18.3 756.79,-29.14 788.39,-36.51 822.36,-48.8 849.97,-59.99"/>
<polygon fill="black" stroke="black" points="848.88,-63.33 859.45,-63.9 851.54,-56.86 848.88,-63.33"/>
</g>
<!-- Caddy&#45;&gt;API -->
<g id="edge4" class="edge">
<title>Caddy&#45;&gt;API</title>
<path fill="none" stroke="black" d="M481.47,-105.85C533.9,-107.6 600.65,-109.82 646.56,-111.35"/>
<polygon fill="black" stroke="black" points="646.5,-114.85 656.61,-111.69 646.73,-107.86 646.5,-114.85"/>
<text text-anchor="middle" x="578.79" y="-113.94" font-family="Helvetica,sans-Serif" font-size="14.00">reverse_proxy</text>
</g>
<!-- Caddy&#45;&gt;Kuma -->
<g id="edge5" class="edge">
<title>Caddy&#45;&gt;Kuma</title>
<path fill="none" stroke="black" d="M481.47,-90.7C529.87,-83.28 590.47,-73.98 635.62,-67.06"/>
<polygon fill="black" stroke="black" points="636.23,-70.51 645.58,-65.53 635.17,-63.59 636.23,-70.51"/>
<text text-anchor="middle" x="578.79" y="-85.94" font-family="Helvetica,sans-Serif" font-size="14.00">reverse_proxy</text>
</g>
<!-- API&#45;&gt;DB -->
<g id="edge6" class="edge">
<title>API&#45;&gt;DB</title>
<path fill="none" stroke="black" d="M745.91,-107.17C776.2,-103.02 816.87,-97.46 849.74,-92.95"/>
<polygon fill="black" stroke="black" points="850.24,-96.42 859.67,-91.6 849.29,-89.48 850.24,-96.42"/>
<text text-anchor="middle" x="808.29" y="-105.94" font-family="Helvetica,sans-Serif" font-size="14.00">5432/TCP</text>
</g>
</g>
</svg>
